<?xml version="1.0" encoding="utf-8"?>
<!-- Generator: Adobe Illustrator 25.4.1, SVG Export Plug-In . SVG Version: 6.00 Build 0)  -->
<svg version="1.1" id="Layer_1" xmlns="http://www.w3.org/2000/svg" xmlns:xlink="http://www.w3.org/1999/xlink" x="0px" y="0px"
	 viewBox="0 0 477 50" style="enable-background:new 0 0 477 50;" xml:space="preserve">
<style type="text/css">
	.st0{fill:#F39B2E;}
	.st1{fill:#115278;}
	.st2{fill:#FFFFFF;}
	.st3{fill:#E07F17;}
</style>
<g>
	<g>
		<path class="st0" d="M22.6,50.1v-8.7C14.9,40,9.1,33.3,9.1,25.3c0-8.1,5.8-14.8,13.5-16.1V0.4C10.2,1.8,0.5,12.4,0.5,25.2
			c0,0,0,0,0,0.1C0.5,38.1,10.2,48.6,22.6,50.1z"/>
		<path class="st1" d="M26.4,0.3L26.4,0.3v8.6v32.7v8.6l0,0c13.4-0.5,24.1-11.4,24.1-24.9c0,0,0,0,0-0.1l0,0l0,0
			C50.5,11.7,39.8,0.7,26.4,0.3z"/>
		<path class="st2" d="M43.9,21.2c-0.2-1.4-0.9-2.3-2.2-2.9c-0.8-0.4-1.7-0.4-2.6-0.2c-0.8,0.2-1.6,0.3-2.5,0.2
			c-0.4-0.1-0.8-0.1-1.2-0.2c-1.9-0.3-3.5,0.6-4.2,2c-0.3,0.6-0.4,1.3-0.4,2c0.1,1.1,0.4,2.2,1,3.2c0.1,0.1,0.1,0.2,0.2,0.3
			c0.4,0.5,0.6,1,0.7,1.6c0.2,1,0.5,2.1,0.7,3.1c0.1,0.5,0.3,0.9,0.5,1.4c0.2,0.3,0.4,0.6,0.8,0.7c0.1,0,0.2,0,0.3,0
			c0.7-0.2,1-0.6,1.2-1.2c0.2-0.7,0.3-1.4,0.5-2.1c0-0.1,0-0.2,0.1-0.3c0.1-0.3,0.3-0.5,0.6-0.5s0.6,0.2,0.6,0.5
			c0.1,0.4,0.1,0.9,0.2,1.3c0.1,0.4,0.2,0.8,0.3,1.2c0.2,0.6,0.6,1,1.2,1.1c0.1,0,0.2,0,0.3,0c0.5-0.1,0.7-0.5,0.9-0.9
			c0.3-0.6,0.5-1.3,0.6-2c0.2-0.8,0.3-1.6,0.5-2.4c0.1-0.5,0.2-0.9,0.5-1.3c0.6-0.7,0.9-1.6,1.1-2.5C43.9,22.7,44,21.9,43.9,21.2z"
			/>
	</g>
	<g>
		<path class="st1" d="M70.5,34.7c-1.7-0.9-3.1-2.2-4.1-3.9c-1-1.6-1.5-3.5-1.5-5.6s0.5-3.9,1.5-5.6s2.4-2.9,4.1-3.9
			s3.7-1.4,5.8-1.4c1.8,0,3.5,0.3,4.9,1c1.5,0.6,2.7,1.6,3.7,2.8L81.8,21c-1.4-1.6-3.2-2.5-5.3-2.5c-1.3,0-2.5,0.3-3.5,0.9
			s-1.8,1.4-2.4,2.4s-0.9,2.2-0.9,3.5s0.3,2.5,0.9,3.5s1.4,1.8,2.4,2.4s2.2,0.9,3.5,0.9c2.1,0,3.9-0.8,5.3-2.5l3.1,2.9
			c-1,1.2-2.2,2.1-3.7,2.8c-1.5,0.6-3.1,1-5,1C74.1,36.1,72.2,35.7,70.5,34.7z"/>
		<path class="st1" d="M101.6,31.3h-9.8l-1.9,4.5h-5l9.4-21h4.8l9.4,21h-5.1L101.6,31.3z M100.1,27.6l-3.3-8l-3.3,8H100.1z"/>
		<path class="st1" d="M124.2,35.8l-4-5.8H120h-4.2v5.8h-4.9v-21h9.1c1.9,0,3.5,0.3,4.8,0.9c1.4,0.6,2.4,1.5,3.2,2.6
			c0.7,1.1,1.1,2.5,1.1,4c0,1.6-0.4,2.9-1.1,4c-0.7,1.1-1.8,2-3.2,2.6l4.7,6.8L124.2,35.8L124.2,35.8z M122.9,19.7
			c-0.8-0.6-1.9-0.9-3.3-0.9h-4v7.3h4c1.5,0,2.6-0.3,3.3-1c0.8-0.6,1.1-1.5,1.1-2.7C124.1,21.2,123.7,20.3,122.9,19.7z"/>
		<path class="st1" d="M146.2,35.8l-4-5.8H142h-4.2v5.8h-4.9v-21h9.1c1.9,0,3.5,0.3,4.8,0.9c1.4,0.6,2.4,1.5,3.2,2.6
			c0.7,1.1,1.1,2.5,1.1,4c0,1.6-0.4,2.9-1.1,4s-1.8,2-3.2,2.6l4.7,6.8L146.2,35.8L146.2,35.8z M145,19.7c-0.8-0.6-1.9-0.9-3.3-0.9
			h-4v7.3h4c1.5,0,2.6-0.3,3.3-1c0.8-0.6,1.1-1.5,1.1-2.7S145.7,20.3,145,19.7z"/>
		<path class="st1" d="M157.2,33.7c-1.7-1.7-2.5-4-2.5-7.1V14.8h4.9v11.6c0,3.8,1.6,5.6,4.7,5.6c1.5,0,2.7-0.5,3.5-1.4
			s1.2-2.3,1.2-4.3V14.8h4.8v11.8c0,3.1-0.8,5.5-2.5,7.1s-4,2.5-7,2.5S158.9,35.3,157.2,33.7z"/>
		<path class="st1" d="M197.6,35.8V23.2l-6.2,10.4h-2.2L183,23.5v12.3h-4.6v-21h4l7.9,13l7.7-13h4l0.1,21
			C202.1,35.8,197.6,35.8,197.6,35.8z"/>
		<path class="st1" d="M215.7,14.8h9.5c2.3,0,4.3,0.4,6,1.3c1.8,0.9,3.1,2.1,4.1,3.7s1.5,3.4,1.5,5.5s-0.5,3.9-1.5,5.5
			s-2.3,2.8-4.1,3.7c-1.8,0.9-3.8,1.3-6,1.3h-9.5V14.8z M225,31.8c2.1,0,3.8-0.6,5-1.8s1.9-2.8,1.9-4.8s-0.6-3.6-1.9-4.8
			s-2.9-1.8-5-1.8h-4.4v13h4.4V31.8z"/>
		<path class="st1" d="M244.7,34.7c-1.8-0.9-3.1-2.2-4.1-3.9c-1-1.7-1.5-3.5-1.5-5.6s0.5-3.9,1.5-5.6c1-1.6,2.4-2.9,4.1-3.9
			c1.8-0.9,3.7-1.4,5.9-1.4s4.1,0.5,5.9,1.4c1.7,0.9,3.1,2.2,4.1,3.9s1.5,3.5,1.5,5.6s-0.5,3.9-1.5,5.6c-1,1.6-2.4,2.9-4.1,3.9
			c-1.7,1-3.7,1.4-5.9,1.4C248.4,36.1,246.5,35.7,244.7,34.7z M254,31.1c1-0.6,1.8-1.4,2.4-2.4c0.6-1,0.9-2.2,0.9-3.5
			s-0.3-2.5-0.9-3.5s-1.4-1.8-2.4-2.4s-2.1-0.9-3.4-0.9c-1.2,0-2.4,0.3-3.4,0.9s-1.8,1.4-2.4,2.4s-0.9,2.2-0.9,3.5s0.3,2.5,0.9,3.5
			s1.4,1.8,2.4,2.4s2.1,0.9,3.4,0.9C251.8,32,253,31.7,254,31.1z"/>
		<path class="st1" d="M296.8,14.8l-6.9,21h-5.2l-4.6-14.2l-4.8,14.2h-5.2l-6.9-21h5l4.7,14.8l4.9-14.8h4.5l4.8,14.9l4.9-14.9
			C292,14.8,296.8,14.8,296.8,14.8z"/>
		<path class="st1" d="M318.8,14.8v21h-4L304.3,23v12.8h-4.8v-21h4l10.4,12.8V14.8H318.8z"/>
		<path class="st1" d="M325.8,35.5c-1.6-0.4-2.8-1-3.7-1.8l1.7-3.7c0.9,0.7,2,1.2,3.2,1.6s2.5,0.6,3.7,0.6c1.4,0,2.4-0.2,3.1-0.6
			s1-1,1-1.6c0-0.5-0.2-0.9-0.6-1.2s-0.9-0.6-1.5-0.8s-1.4-0.4-2.5-0.7c-1.6-0.4-2.9-0.8-3.9-1.1c-1-0.4-1.9-1-2.6-1.8
			s-1.1-2-1.1-3.4c0-1.2,0.3-2.3,1-3.3s1.7-1.8,3-2.4c1.3-0.6,3-0.9,4.9-0.9c1.3,0,2.6,0.2,3.9,0.5s2.4,0.8,3.4,1.4l-1.5,3.7
			c-1.9-1.1-3.9-1.7-5.8-1.7c-1.4,0-2.4,0.2-3,0.7c-0.7,0.4-1,1-1,1.7s0.4,1.3,1.1,1.6c0.8,0.4,1.9,0.7,3.4,1
			c1.6,0.4,2.9,0.8,3.9,1.1c1,0.4,1.9,1,2.6,1.8s1.1,1.9,1.1,3.3c0,1.2-0.3,2.3-1,3.3c-0.7,1-1.7,1.8-3,2.4s-3,0.9-4.9,0.9
			C329,36.1,327.4,35.9,325.8,35.5z"/>
		<path class="st3" d="M351.2,14.8h9.5c2.3,0,4.3,0.4,6,1.3c1.8,0.9,3.1,2.1,4.1,3.7s1.5,3.4,1.5,5.5s-0.5,3.9-1.5,5.5
			s-2.3,2.8-4.1,3.7c-1.8,0.9-3.8,1.3-6,1.3h-9.5V14.8z M360.5,31.8c2.1,0,3.8-0.6,5-1.8s1.9-2.8,1.9-4.8s-0.6-3.6-1.9-4.8
			s-2.9-1.8-5-1.8h-4.4v13h4.4V31.8z"/>
		<path class="st3" d="M392.2,31.9v3.9h-16.3v-21h15.9v3.9h-11v4.6h9.8v3.8h-9.8V32L392.2,31.9L392.2,31.9z"/>
		<path class="st3" d="M415.3,14.8v21h-4L400.8,23v12.8H396v-21h4l10.4,12.8V14.8H415.3z"/>
		<path class="st3" d="M424.7,18.7H418v-4h18.2v4h-6.7v17h-4.9v-17H424.7z"/>
		<path class="st3" d="M451.6,31.3h-9.8l-1.9,4.5h-5l9.4-21h4.8l9.4,21h-5.1L451.6,31.3z M450.1,27.6l-3.3-8l-3.3,8H450.1z"/>
		<path class="st3" d="M460.8,14.8h4.9v17h10.5v4h-15.4V14.8z"/>
	</g>
</g>
</svg>
