<?xml version="1.0" encoding="utf-8"?>
<!-- Generator: Adobe Illustrator 25.4.1, SVG Export Plug-In . SVG Version: 6.00 Build 0)  -->
<svg version="1.1" id="Layer_1" xmlns="http://www.w3.org/2000/svg" xmlns:xlink="http://www.w3.org/1999/xlink" x="0px" y="0px"
	 viewBox="0 0 360 49.8" style="enable-background:new 0 0 360 49.8;" xml:space="preserve">
<style type="text/css">
	.st0{fill:#00708E;}
	.st1{fill:#B5DD37;}
	.st2{fill:#98CC32;}
	.st3{fill:#FFFFFF;}
</style>
<g>
	<path class="st0" d="M75.4,16.2c-1-0.6-3.4-1-5-1c-1.7,0-3,0.5-3.8,0.9c-2,1.1-3.4,3.5-3.4,6.5c0,4.4,2.9,8.8,7.6,8.8
		c2.7,0,4-0.9,4.6-1.1l0.9,1.9c-0.8,0.6-2.9,1.9-7.3,1.9c-6,0-10.1-4.3-10.1-10.3c0-3.5,0.9-5.7,3.1-8.1c2-2.3,5.4-3.1,8.5-3.1
		c3.1,0,4.7,0.6,5.9,1.1L75.4,16.2z"/>
	<path class="st0" d="M86.7,34.1l-0.6-1.6c-0.9,0.4-2.7,1.6-5,1.6c-2.2,0-3.6-1.9-3.6-3.7c0-1.4,0.4-2.4,1.3-3.3c1-1,3.7-1.7,7.1-2
		v-1.1c0-1.2-0.4-2.2-2.2-2.2c-2.1,0-3.8,1.1-4.7,1.7l-1-1.9c1.4-1.3,3.6-2,6.3-2c3.6,0,5.6,1.4,5.6,4v6.5c0,0.8,0.2,2,0.9,2H92v1.7
		L86.7,34.1z M85.9,26.6c-1.3,0-3.1,0.4-3.9,1.1c-0.4,0.4-0.8,1.2-0.8,2.1c0,1,0.7,2,1.8,2c0.8,0,1.9-0.5,2.4-0.9
		c0.4-0.3,0.5-0.7,0.5-1.2V26.6z"/>
	<path class="st0" d="M102.2,22.6c-2.6,0-3.2,1.5-3.2,3.4v7.6h-4V19.9h3.7l0.2,2.3c0.4-1.2,1.2-2.9,3.4-2.9c0.5,0,1.2,0.1,1.4,0.2
		v3.1C103.6,22.7,103.1,22.6,102.2,22.6z"/>
	<path class="st0" d="M113.5,22.6c-2.6,0-3.2,1.5-3.2,3.4v7.6h-4V19.9h3.7l0.2,2.3c0.4-1.2,1.2-2.9,3.4-2.9c0.5,0,1.2,0.1,1.4,0.2
		v3.1C114.9,22.7,114.4,22.6,113.5,22.6z"/>
	<path class="st0" d="M127.5,34.1l-0.5-1.8c-1,0.5-3.9,1.8-6.2,1.8c-2.1,0-3.4-1.5-3.4-4.2v-10h4.1v9.9c0,0.9,0.4,1.8,1.6,1.8
		c1.2,0,2.6-0.6,3.4-1V19.9h4.1v10.7c0,0.8,0.3,1.3,0.9,1.3h1v1.7L127.5,34.1z"/>
	<path class="st0" d="M153.9,33.6v-9.9c0-0.9-0.4-1.7-1.5-1.7c-0.8,0-1.5,0.2-2.2,0.5c-0.5,0.2-1,0.5-1.3,0.6v10.5h-4.1v-9.8
		c0-0.9-0.4-1.7-1.5-1.7c-0.6,0-1.3,0.2-2,0.4c-0.6,0.2-1.2,0.5-1.6,0.7v10.4h-4.1V19.9h3.5l0.2,1.3c0.5-0.2,1.4-0.6,2.7-1
		c1.1-0.4,2.4-0.8,3.8-0.8c1.9,0,2.4,1.1,2.7,1.7c0.7-0.3,1.6-0.7,2.7-1c1.1-0.3,2.3-0.7,3.5-0.7c2.3,0,3.3,1.4,3.3,3.7v10.5H153.9z
		"/>
	<path class="st0" d="M186.9,30.4c-2.4,2.4-5.6,3.2-9,3.2h-7.5V13.3l3.4-0.3c1.3,0,3.2,0,5.8,0c6,0,10.5,3.8,10.5,10.1
		C190,25.9,188.8,28.5,186.9,30.4z M181.2,16.2c-1.3-0.5-2.4-0.7-4.6-0.7h-1.7V30c0,0.7,0.4,1,1.1,1h1.3c2.5,0,4.7-0.2,6.3-1.6
		c1.5-1.4,2.1-3.5,2.1-5.2C185.6,20.8,184,17.4,181.2,16.2z"/>
	<path class="st0" d="M200.3,34.1c-4.4,0-7.3-2.4-7.3-7c0-4.5,3.5-7.7,8.3-7.7c4.3,0,7.1,2.5,7.1,6.9
		C208.4,31.1,205,34.1,200.3,34.1z M200.4,21.6c-2.1,0-3.5,1.7-3.5,4c0,2.6,0.9,6.4,4.2,6.4c2.4,0,3.6-1.8,3.6-4.2
		C204.6,25,203.8,21.6,200.4,21.6z"/>
	<path class="st0" d="M226.4,33.6h-2.1l-3.7-9.1l-3.9,9.1h-1.9L210,19.9h3.8l2.7,8.9l3.9-8.9h1.7l3.6,9l3-9h2.6L226.4,33.6z"/>
	<path class="st0" d="M243.4,33.6v-9.8c0-0.9-0.7-1.8-1.8-1.8c-1.6,0-3,1-3.5,1.3v10.3H234V19.9h3.6l0.2,1.5c1.7-0.9,3.7-2,5.8-2
		c2.7,0,3.9,1.8,3.9,3.8v10.5H243.4z"/>
	<path class="st0" d="M260.8,32.3c-1.2,1.2-3.1,1.8-5.5,1.8c-2.1,0-3.9-0.7-4.8-1.2l0.8-2.3c0.6,0.4,2.1,1.3,4,1.3
		c1.2,0,3.1-0.5,3.1-1.9c0-0.7-0.6-1.1-1.7-1.4l-2.5-0.7c-2.1-0.6-3.5-1.4-3.5-3.8c0-3.4,2.8-4.6,6-4.6c2,0,3.5,0.4,4.5,0.9
		l-0.8,2.3c-0.5-0.3-1.9-0.9-3.7-0.9c-1.1,0-2.5,0.2-2.5,1.6c0,0.5,0.5,1.1,1.8,1.5l2.3,0.6c2.6,0.7,3.5,2.1,3.5,3.8
		C262.1,30.5,261.6,31.4,260.8,32.3z"/>
	<path class="st1" d="M289.4,30.4c-2.4,2.4-5.6,3.2-9,3.2h-7.5V13.3l3.4-0.3c1.3,0,3.2,0,5.8,0c6,0,10.5,3.8,10.5,10.1
		C292.5,25.9,291.3,28.5,289.4,30.4z M283.6,16.2c-1.3-0.5-2.4-0.7-4.6-0.7h-1.7V30c0,0.7,0.4,1,1.1,1h1.3c2.5,0,4.7-0.2,6.3-1.6
		c1.5-1.4,2.1-3.5,2.1-5.2C288.1,20.8,286.5,17.4,283.6,16.2z"/>
	<path class="st1" d="M308.7,26.3l-3.4,1h-6c0,2.7,2,4.5,5,4.5c1.2,0,2.8-0.5,3.6-0.9l0.8,1.5c-0.7,0.6-2.6,1.7-6,1.7
		c-1.8,0-3.5-0.5-4.8-1.6c-1.6-1.4-2.3-3.2-2.3-5.4c0-4.6,2.8-7.7,7.6-7.7c3.8,0,5.6,2.2,5.6,5.8C308.7,25.7,308.7,25.8,308.7,26.3z
		 M302.6,21.6c-1.8,0-3.4,1.5-3.4,3.7h4.9c0.6,0,1-0.2,1-1C305.2,23.2,304.5,21.6,302.6,21.6z"/>
	<path class="st1" d="M321.4,33.6v-9.8c0-0.9-0.7-1.8-1.8-1.8c-1.6,0-3,1-3.5,1.3v10.3H312V19.9h3.6l0.2,1.5c1.7-0.9,3.7-2,5.8-2
		c2.7,0,3.9,1.8,3.9,3.8v10.5H321.4z"/>
	<path class="st1" d="M333.5,34.1c-2.4,0-3.4-1.2-3.4-2.9V22h-2v-2.1h1.2c0.8,0,1.1-0.5,1.2-0.9l0.5-2.6l3.1-0.5v4h3.2V22H334v8
		c0,1,0.3,1.9,1.5,1.9c0.5,0,1.4-0.1,1.7-0.2l0.5,1.8C337.2,33.6,335.4,34.1,333.5,34.1z"/>
	<path class="st1" d="M348,34.1l-0.6-1.6c-0.9,0.4-2.7,1.6-5,1.6c-2.2,0-3.6-1.9-3.6-3.7c0-1.4,0.4-2.4,1.3-3.3c1-1,3.7-1.7,7.1-2
		v-1.1c0-1.2-0.4-2.2-2.2-2.2c-2.1,0-3.8,1.1-4.7,1.7l-1-1.9c1.4-1.3,3.6-2,6.3-2c3.6,0,5.6,1.4,5.6,4v6.5c0,0.8,0.2,2,0.9,2h1.2
		v1.7L348,34.1z M347.3,26.6c-1.3,0-3.1,0.4-3.9,1.1c-0.4,0.4-0.8,1.2-0.8,2.1c0,1,0.7,2,1.8,2c0.8,0,1.9-0.5,2.4-0.9
		c0.4-0.3,0.5-0.7,0.5-1.2V26.6z"/>
	<path class="st1" d="M356.1,33.6V11.3h4v22.3H356.1z"/>
</g>
<g>
	<path class="st2" d="M0,24.8C0,24.9,0,24.9,0,24.8C0,24.9,0,24.9,0,24.8C0,24.8,0,24.8,0,24.8z"/>
	<path class="st1" d="M22.1,49.7v-8.7c-7.7-1.4-13.5-8.1-13.5-16.1c0-8.1,5.8-14.8,13.5-16.1V0C9.7,1.4,0,12,0,24.8c0,0,0,0,0,0.1
		C0,37.7,9.7,48.2,22.1,49.7z"/>
	<path class="st0" d="M25.9-0.1L25.9-0.1v8.6v32.7v8.6v0C39.3,49.3,50,38.4,50,24.9c0,0,0,0,0-0.1c0,0,0,0,0,0s0,0,0,0
		C50,11.3,39.3,0.3,25.9-0.1z"/>
</g>
<path class="st3" d="M43.4,20.8c-0.2-1.4-0.9-2.3-2.2-2.9c-0.8-0.4-1.7-0.4-2.6-0.2c-0.8,0.2-1.6,0.3-2.5,0.2
	c-0.4-0.1-0.8-0.1-1.2-0.2c-1.9-0.3-3.5,0.6-4.2,2c-0.3,0.6-0.4,1.3-0.4,2c0.1,1.1,0.4,2.2,1,3.2c0.1,0.1,0.1,0.2,0.2,0.3
	c0.4,0.5,0.6,1,0.7,1.6c0.2,1,0.5,2.1,0.7,3.1c0.1,0.5,0.3,0.9,0.5,1.4c0.2,0.3,0.4,0.6,0.8,0.7c0.1,0,0.2,0,0.3,0
	c0.7-0.2,1-0.6,1.2-1.2c0.2-0.7,0.3-1.4,0.5-2.1c0-0.1,0-0.2,0.1-0.3c0.1-0.3,0.3-0.5,0.6-0.5c0.3,0,0.6,0.2,0.6,0.5
	c0.1,0.4,0.1,0.9,0.2,1.3c0.1,0.4,0.2,0.8,0.3,1.2c0.2,0.6,0.6,1,1.2,1.1c0.1,0,0.2,0,0.3,0c0.5-0.1,0.7-0.5,0.9-0.9
	c0.3-0.6,0.5-1.3,0.6-2c0.2-0.8,0.3-1.6,0.5-2.4c0.1-0.5,0.2-0.9,0.5-1.3c0.6-0.7,0.9-1.6,1.1-2.5C43.4,22.3,43.5,21.5,43.4,20.8z"
	/>
</svg>
